<svg xmlns="http://www.w3.org/2000/svg">

    <symbol id="sun-fill" viewBox="0 0 16 16">
        <path
            d="M8 12a4 4 0 1 0 0-8 4 4 0 0 0 0 8M8 0a.5.5 0 0 1 .5.5v2a.5.5 0 0 1-1 0v-2A.5.5 0 0 1 8 0m0 13a.5.5 0 0 1 .5.5v2a.5.5 0 0 1-1 0v-2A.5.5 0 0 1 8 13m8-5a.5.5 0 0 1-.5.5h-2a.5.5 0 0 1 0-1h2a.5.5 0 0 1 .5.5M3 8a.5.5 0 0 1-.5.5h-2a.5.5 0 0 1 0-1h2A.5.5 0 0 1 3 8m10.657-5.657a.5.5 0 0 1 0 .707l-1.414 1.415a.5.5 0 1 1-.707-.708l1.414-1.414a.5.5 0 0 1 .707 0m-9.193 9.193a.5.5 0 0 1 0 .707L3.05 13.657a.5.5 0 0 1-.707-.707l1.414-1.414a.5.5 0 0 1 .707 0m9.193 2.121a.5.5 0 0 1-.707 0l-1.414-1.414a.5.5 0 0 1 .707-.707l1.414 1.414a.5.5 0 0 1 0 .707M4.464 4.465a.5.5 0 0 1-.707 0L2.343 3.05a.5.5 0 1 1 .707-.707l1.414 1.414a.5.5 0 0 1 0 .708" />
    </symbol>

    <symbol id="arrow-right" viewBox="0 0 16 16">
        <path fill-rule="evenodd"
            d="M4 8a.5.5 0 0 1 .5-.5h5.793L8.146 5.354a.5.5 0 1 1 .708-.708l3 3a.5.5 0 0 1 0 .708l-3 3a.5.5 0 0 1-.708-.708L10.293 8.5H4.5A.5.5 0 0 1 4 8" />
    </symbol>

    <symbol id="github" viewBox="0 0 98 98">
        <path fill-rule="evenodd" clip-rule="evenodd"
            d="M48.854 0C21.839 0 0 22 0 49.217c0 21.756 13.993 40.172 33.405 46.69 2.427.49 3.316-1.059 3.316-2.362 0-1.141-.08-5.052-.08-9.127-13.59 2.934-16.42-5.867-16.42-5.867-2.184-5.704-5.42-7.17-5.42-7.17-4.448-3.015.324-3.015.324-3.015 4.934.326 7.523 5.052 7.523 5.052 4.367 7.496 11.404 5.378 14.235 4.074.404-3.178 1.699-5.378 3.074-6.6-10.839-1.141-22.243-5.378-22.243-24.283 0-5.378 1.94-9.778 5.014-13.2-.485-1.222-2.184-6.275.486-13.038 0 0 4.125-1.304 13.426 5.052a46.97 46.97 0 0 1 12.214-1.63c4.125 0 8.33.571 12.213 1.63 9.302-6.356 13.427-5.052 13.427-5.052 2.67 6.763.97 11.816.485 13.038 3.155 3.422 5.015 7.822 5.015 13.2 0 18.905-11.404 23.06-22.324 24.283 1.78 1.548 3.316 4.481 3.316 9.126 0 6.6-.08 11.897-.08 13.526 0 1.304.89 2.853 3.316 2.364 19.412-6.52 33.405-24.935 33.405-46.691C97.707 22 75.788 0 48.854 0z" />
    </symbol>

    <symbol id="windows" viewBox="0 0 48 48">
        <linearGradient id="wa" x1="9.703" x2="16.585" y1="26.119" y2="37.59" gradientUnits="userSpaceOnUse">
            <stop offset="0" stop-color="#1784d8" />
            <stop offset="1" stop-color="#0864c5" />
        </linearGradient>
        <path fill="url(#wa)" d="M20 25.026 5.011 25l.001 11.002c0 .999.737 1.844 1.726 1.981L20 39.818V25.026z" />
        <linearGradient id="wb" x1="24.604" x2="44.545" y1="27.13" y2="40.895" gradientUnits="userSpaceOnUse">
            <stop offset="0" stop-color="#31abec" />
            <stop offset="1" stop-color="#1582d5" />
        </linearGradient>
        <path fill="url(#wb)" d="M22 25.03v15.065l18.722 2.59c1.202.166 2.274-.767 2.274-1.981L43 25.066l-21-.036z" />
        <linearGradient id="wc" x1="8.142" x2="25.788" y1="11.699" y2="27.581" gradientUnits="userSpaceOnUse">
            <stop offset="0" stop-color="#31abec" />
            <stop offset="1" stop-color="#1582d5" />
        </linearGradient>
        <path fill="url(#wc)" d="m20 8.256-13.278 1.88c-.987.14-1.721.985-1.72 1.982L5.014 23H20V8.256z" />
        <linearGradient id="wd" x1="25.913" x2="56.031" y1="10.147" y2="30.618" gradientUnits="userSpaceOnUse">
            <stop offset="0" stop-color="#54daff" />
            <stop offset="1" stop-color="#25a2e5" />
        </linearGradient>
        <path fill="url(#wd)" d="M22 7.973V23h20.995V7.303c0-1.216-1.076-2.151-2.28-1.98L22 7.973z" />
    </symbol>

    <symbol id="linux" viewBox="0 0 32 32">
        <linearGradient id="la">
            <stop offset="0" stop-color="#f39c1f" />
            <stop offset="1" stop-color="#fdbc4b" />
        </linearGradient>
        <linearGradient id="lc" gradientUnits="userSpaceOnUse" x1="17.382" x2="17.032" y1="26.933" y2="13.634">
            <stop offset="0" stop-color="#fcfcfc" />
            <stop offset="1" stop-color="#eff0f1" />
        </linearGradient>
        <linearGradient id="lb" gradientUnits="userSpaceOnUse" x1="15" x2="15" y1="27" y2="1.999">
            <stop offset="0" stop-color="#1d1e1e" />
            <stop offset="1" stop-color="#44484c" />
        </linearGradient>
        <linearGradient id="lg" gradientUnits="userSpaceOnUse" x1="16" x2="15.731" href="#la" y1="12" y2="8.152" />
        <linearGradient id="ld" gradientUnits="userSpaceOnUse" x1="10" x2="10" href="#la" y1="30" y2="20.999" />
        <linearGradient id="le" gradientUnits="userSpaceOnUse" x1="22.778" x2="22.645" href="#la" y1="29.541"
            y2="22.641" />
        <linearGradient id="lf" gradientUnits="userSpaceOnUse" x1="13.167" x2="16.667" y1="10.613" y2="14.113">
            <stop offset="0" />
            <stop offset="1" stop-opacity="0" />
        </linearGradient>
        <path
            d="M12.627 10.452c.36-1.426.013-2.942.063-4.412.11-3.21 1.892-3.938 3.719-4.033 2.096-.11 4.577 1.132 4.727 4.16.071 1.449-.185 2.946.189 4.348.871 3.27 4.61 5.631 4.664 9.013.05 3.214-1.43 7.002-4.16 8.698-1.41.876-3.323-.175-4.98-.063-1.843.126-3.893 1.763-5.483.82C8.48 27.27 7.684 22.878 7.9 19.528c.22-3.404 3.892-5.768 4.727-9.076z"
            fill="url(#lb)" />
        <ellipse cx="17.76" cy="7.782" fill="#fcfcfc" fill-opacity=".941" rx="1.482" ry="1.916" />
        <ellipse cx="14.25" cy="7.849" fill="#fcfcfc" fill-opacity=".941" rx="1.047" ry="1.56" />
        <ellipse cx="17.576" cy="8.094" fill="#232629" rx=".607" ry="1.003" />
        <ellipse cx="14.255" cy="8.094" fill="#232629" rx=".462" ry=".747" />
        <path
            d="M17.564 9.757a5.068 5.068 0 0 0-.545.004c-1.23.072-2.548.555-3.214 1.14-1.066.937-.434 1.848-.893 3.164s-1.614 3.038-1.96 4.68c-.14.663-.318 1.326-.44 1.992l3.293 4.024c.647.79-1.041.497-2.611-.52 1.114 1.567 3.324 3.12 5.506 2.973 2.324-.156 5.068-2.586 5.946-4.573-.852-.144-1.68-1.426-.998-2.381.237-.331.746-.36 1.183-.29-.263-1.018-.787-1.93-1.05-2.696-.456-1.336-.986-1.71-1.47-2.896-.485-1.186.027-3.38-1.338-4.234-.384-.24-.875-.36-1.409-.387z"
            fill="url(#lc)" />
        <path
            d="M7.333 22.365c.487-.39.715-1.183 1.323-1.324.476-.11 1.01.163 1.387.473.861.708.992 2.014 1.67 2.9.452.589 1.218.924 1.576 1.575.373.68.854 1.578.504 2.269-.472.931-1.824 1.22-2.868 1.26-.634.025-1.185-.46-1.796-.63-.89-.248-1.917-.095-2.71-.567-.628-.373-1.372-.941-1.418-1.67-.019-.288.402-.445.472-.725.186-.736-.527-1.59-.189-2.27.36-.722 1.418-.787 2.049-1.291z"
            fill="url(#ld)" />
        <path
            d="M21.43 21.269c-.201.18-.371.407-.495.632-.538.977-.175 2.24-.477 3.313-.202.715-.789 1.31-.88 2.046-.095.77-.21 1.782.371 2.295.784.69 2.147.457 3.131.108.599-.212.93-.866 1.435-1.25.734-.56 1.745-.8 2.307-1.531.445-.58.927-1.382.7-2.076-.09-.274-.538-.265-.707-.499-.445-.615-.1-1.67-.665-2.176-.42-.375-1.037-.332-1.633-.348-.288.617-1.226 1.037-1.871.858-.546-.152-1.09-.773-1.216-1.372z"
            fill="url(#le)" />
        <path d="m19 9.401 3.333 3.333-4.666 2.38-4.5-4.5" fill="url(#lf)" opacity=".2" />
        <path
            d="M15.731 8.152c.659-.035 1.265.392 1.86.677.575.277 1.557.36 1.638.993.093.719-.92 1.143-1.512 1.56-.529.373-1.119.81-1.765.804-.653-.007-1.231-.475-1.765-.851-.44-.31-1.133-.596-1.15-1.135-.019-.576.69-.943 1.15-1.292.456-.346.972-.726 1.544-.756z"
            fill="url(#lg)" />
        <path
            d="M9.021 21.025a1.054 1.054 0 0 0-.365.016c-.608.141-.837.934-1.324 1.324-.631.504-1.689.57-2.049 1.291-.15.302-.082.64.012.985.368-.706 1.411-.776 2.037-1.276.487-.39.716-1.183 1.324-1.324.476-.11 1.01.163 1.387.473.861.708.992 2.014 1.67 2.9.452.59 1.218.923 1.576 1.574.195.356.413.772.533 1.186.275-.679-.175-1.532-.533-2.186-.358-.65-1.124-.985-1.576-1.574-.678-.886-.809-2.192-1.67-2.9-.283-.233-.653-.444-1.022-.489zm-3.623 5.036c-.139.201-.412.352-.396.59.014.22.104.42.223.61.105-.102.215-.205.248-.335.07-.277.006-.571-.075-.865zM21.43 21.27c-.201.18-.37.405-.494.63-.538.977-.177 2.242-.479 3.315-.202.715-.788 1.309-.879 2.045-.053.43-.098.927-.039 1.379.013-.128.024-.26.04-.38.09-.735.676-1.33.878-2.044.302-1.073-.06-2.338.479-3.315.124-.225.293-.45.494-.63.126.599.67 1.219 1.216 1.37.645.18 1.584-.24 1.872-.857.596.016 1.212-.027 1.632.348.565.506.22 1.56.664 2.176.15.207.507.235.65.427.106-.312.155-.629.057-.927-.09-.274-.538-.266-.707-.5-.445-.615-.099-1.67-.664-2.176-.42-.375-1.036-.332-1.632-.348-.288.617-1.227 1.037-1.872.858-.546-.152-1.09-.772-1.216-1.371z"
            fill="#eff0f1" fill-opacity=".125" />
    </symbol>

    <symbol id="macos" viewBox="0 0 48 48">

        <defs>
            <path id="a" d="M5 6h39v35H5z" />
        </defs>
        <clipPath id="b">
            <use href="#a" overflow="visible" />
        </clipPath>
        <g clip-path="url(#b)">
            <path
                d="M40.056 40.98H8.944C6.766 40.98 5 39.214 5 37.036V9.964C5 7.786 6.766 6.02 8.944 6.02h31.113C42.234 6.02 44 7.786 44 9.964v27.073c0 2.177-1.766 3.943-3.944 3.943z"
                fill="#e1e1e1" />
        </g>
        <g clip-path="url(#b)">
            <path
                d="M38.992 6.04H26.32c-.036 0-.069.023-.081.056-1.01 2.713-1.813 5.523-2.399 8.354-.554 2.78-.903 5.62-1.026 8.46-.002.049.037.09.087.09h3.819c.4 0 .79.17 1.06.47.27.3.4.7.36 1.1-.277 2.908-.28 5.855.02 8.764.005.051.052.088.102.078 2.307-.44 5.265-1.464 8.028-3.783.43-.35 1.06-.29 1.41.13.36.42.3 1.05-.12 1.41-3.138 2.623-6.501 3.757-9.08 4.235-.045.008-.074.051-.067.096.276 1.831.676 3.652 1.18 5.435.01.039.044.065.083.065h9.222C41.172 41 43 39.172 43 36.917V10.048c0-2.214-1.794-4.008-4.008-4.008zM34.15 17.95c0 .55-.45 1-1 1s-1-.45-1-1V14.7c0-.55.45-1 1-1s1 .45 1 1v3.25z"
                fill="#e1e1e1" />
        </g>
        <g clip-path="url(#b)">
            <path d="M32.15 17.95V14.7c0-.55.45-1 1-1s1 .45 1 1v3.25c0 .55-.45 1-1 1s-1-.45-1-1z" fill="#00b7f9" />
        </g>
        <g clip-path="url(#b)">
            <path
                d="M37.58 31.17c-3.17 2.65-6.57 3.78-9.16 4.25.28 1.88.69 3.75 1.21 5.58H9.003C6.792 41 5 39.208 5 36.997V10.053C5 7.837 6.797 6.04 9.013 6.04H26.26c-1.02 2.73-1.83 5.56-2.42 8.41-.56 2.81-.91 5.68-1.03 8.55h3.91c.4 0 .79.17 1.06.47.27.3.4.7.36 1.1-.28 2.94-.28 5.92.03 8.86 2.32-.43 5.32-1.45 8.12-3.8.43-.35 1.06-.29 1.41.13.36.42.3 1.05-.12 1.41z"
                fill="#00b7f9" />
        </g>
        <g clip-path="url(#b)">
            <path
                d="M29.63 41c-.52-1.83-.93-3.7-1.21-5.58-.09-.59-.17-1.19-.23-1.78-.01-.07-.01-.14-.02-.21-.31-2.94-.31-5.92-.03-8.86.04-.4-.09-.8-.36-1.1-.27-.3-.66-.47-1.06-.47h-3.91c.12-2.87.47-5.74 1.03-8.55.59-2.85 1.4-5.68 2.42-8.41.08-.21.16-.41.24-.62l-1.86-.73c-.17.45-.34.9-.5 1.35-.95 2.61-1.71 5.3-2.26 8.02-.63 3.11-.99 6.29-1.09 9.47-.01.39.13.76.41 1.04.26.27.64.43 1.03.43h3.86c-.24 2.89-.21 5.81.09 8.69.01.05.01.11.02.16.07.61.14 1.22.24 1.82.26 1.8.64 3.58 1.11 5.33.26.95.54 1.88.86 2.81l1.9-.65c-.25-.71-.47-1.44-.68-2.16z"
                fill="#00a0d1" />
        </g>
        <g clip-path="url(#b)">
            <path
                d="M37.58 31.17c-3.17 2.65-6.57 3.78-9.16 4.25-.73.13-1.4.21-1.98.25-.56.05-1.04.06-1.41.06-6.41 0-10.91-3.19-12.55-4.56-.43-.36-.48-.99-.13-1.41.36-.42.99-.48 1.41-.13 1.47 1.24 5.51 4.1 11.27 4.1.31 0 .7-.01 1.15-.04.57-.04 1.24-.12 1.99-.26 2.32-.43 5.32-1.45 8.12-3.8.43-.35 1.06-.29 1.41.13.36.42.3 1.05-.12 1.41z"
                fill="#37474f" />
        </g>
        <g clip-path="url(#b)">
            <path d="M15.826 18.95c-.553 0-1-.448-1-1v-3.248c0-.552.447-1 1-1s1 .448 1 1v3.248c0 .552-.447 1-1 1z"
                fill="#37474f" />
        </g>
        <g clip-path="url(#b)">
            <path d="M34.15 14.7v3.25c0 .55-.45 1-1 1s-1-.45-1-1V14.7c0-.55.45-1 1-1s1 .45 1 1z" fill="#37474f" />
        </g>

    </symbol>

    <symbol id="download" viewBox="0 0 16 16">
        <path
            d="M.5 9.9a.5.5 0 0 1 .5.5v2.5a1 1 0 0 0 1 1h12a1 1 0 0 0 1-1v-2.5a.5.5 0 0 1 1 0v2.5a2 2 0 0 1-2 2H2a2 2 0 0 1-2-2v-2.5a.5.5 0 0 1 .5-.5" />
        <path
            d="M7.646 11.854a.5.5 0 0 0 .708 0l3-3a.5.5 0 0 0-.708-.708L8.5 10.293V1.5a.5.5 0 0 0-1 0v8.793L5.354 8.146a.5.5 0 1 0-.708.708z" />
    </symbol>

    <symbol id="search" viewBox="0 0 16 16">
          <path
            d="M11.742 10.344a6.5 6.5 0 1 0-1.397 1.398h-.001q.044.06.098.115l3.85 3.85a1 1 0 0 0 1.415-1.414l-3.85-3.85a1 1 0 0 0-.115-.1zM12 6.5a5.5 5.5 0 1 1-11 0 5.5 5.5 0 0 1 11 0" />
    </symbol>

    <symbol id="id">

    </symbol>

</svg>